# xmcd CD database file
#
# Track frame offsets:
#	150
#	20404
#	40596
#	59527
#	75114
#	94936
#	113087
#	123826
#	147382
#	162300
#	183321
#	202809
#	218229
#	237745
#
# Disc length: 3451 seconds
#
# Revision: 0
# Processed by: cddbd v1.5.2PL0 Copyright (c) Steve Scherf et al.
# Submitted via: CDex 1.70beta2
#
DISCID=b80d790e
DTITLE=Straightup Blues Band - Blues Straight At Ya
DYEAR=2005
DGENRE=Blues
TTITLE0=Got My Mojo Working
TTITLE1=Lazyman Blues
TTITLE2=Living The Blues
TTITLE3=Shame On You
TTITLE4=What I Don't Know
TTITLE5=California Dreamin'
TTITLE6=I Don't Want Nobody
TTITLE7=It's All Right
TTITLE8=Before You Accuse Me
TTITLE9=It's Raining
TTITLE10=Bring Me Some Water
TTITLE11=Sweet Home Chicago
TTITLE12=It's 2 A.M.
TTITLE13=It's A Blues Thing
EXTD=YEAR: 2005
EXTT0=
EXTT1=
EXTT2=
EXTT3=
EXTT4=
EXTT5=
EXTT6=
EXTT7=
EXTT8=
EXTT9=
EXTT10=
EXTT11=
EXTT12=
EXTT13=
PLAYORDER=
